All Things Fall Apart (2011) 1080p mkv x264 AC3+DTS Eng NL Subs
.
[IMG]http://img546.imageshack.us/img546/2301/12533.jpg[/IMG]
.
Verenigde Staten
Drama

geregisseerd door Mario Van Peebles
met Ray Liotta, 50 Cent en Mario Van Peebles

Deon Barnes (50 Cent) is een running back met een combinatie van kracht en snelheid. Zijn moeder Bee werkt dubbele diensten in een bar en wanneer Deon op TV is zit het cafe vol met supporters. De familievriend Eric (Mario van Peebles) is er altijd om Bee te steunen en treedt op als mentor voor Deon. Sean, de broer van Deon is ook een student, een harde werker die zijn collegegeld betaalt van financiÙle steun en een full-time baan bij een autodealer. De broers staan op goede voet met elkaar maar Deon is niet op de hoogte van de rancune die Sean tegenover hem voelt. Sean werkt hard om goede resultaten te behalen op school en Deon werkt hard om in de NFL te komen. Wanneer het team aan het eind van het seizoen een overwinning nodig heeft om hun positie veilig te stellen pept Deon zijn teamspelers op en helpt hen aan de overwinning. Maar de feestvreugde is van korte duur wanneer Deon in de kleedkamer instort en wakker wordt in het ziekenhuis. Daar krijgt hij van Dr. Brintall (Ray Liotta) te horen dat hij kanker heeft en hij waarschijnlijk nooit meer football zal kunnen spelen.
. 
http://www.moviemeter.nl/film/72553
.
PLOT
.
A drama centered around a promising football running back during his senior year in college. 
. 
http://www.imdb.com/title/tt1606390/
.
INFO
.
Source: hd4u
Format: 1920x1080 x264 (MKV)
Audio: English AC3 + DTS
Subs: English, Dutch
.
Quality over Quantity (QoQ) «eleases Vertalingen.
Vertaling: WinchesterGirl, Pinkgaai, Chillywitch & Smokey
Controle & Bewerking: r3p0
.
Format                           : Matroska
Format version                   : Version 2
File size                        : 8.44 GiB
Duration                         : 1h 50mn
Overall bit rate                 : 11.0 Mbps
Encoded date                     : UTC 2012-02-07 05:11:09
Writing application              : mkvmerge v3.3.0 ('Language') built on Mar 24 2010 14:59:24
Writing library                  : libebml v0.8.0 + libmatroska v0.9.0

Video
ID                               : 1
Format                           : AVC
Format/Info                      : Advanced Video Codec
Format profile                   : High@L4.1
Format settings, CABAC           : Yes
Format settings, ReFrames        : 4 frames
Codec ID                         : V_MPEG4/ISO/AVC
Duration                         : 1h 50mn
Bit rate                         : 8 806 Kbps
Width                            : 1 920 pixels
Height                           : 1 080 pixels
Display aspect ratio             : 16:9
Frame rate                       : 23.976 fps
Color space                      : YUV
Chroma subsampling               : 4:2:0
Bit depth                        : 8 bits
Scan type                        : Progressive
Bits/(Pixel*Frame)               : 0.177
Stream size                      : 6.62 GiB (78%)
Writing library                  : x264 core 120 r2146 bcd41db
Encoding settings                : cabac=1 / ref=4 / deblock=1:0:0 / analyse=0x3:0x133 / me=umh / subme=7 / psy=1 / psy_rd=1.00:0.00 / mixed_ref=1 / me_range=16 / chroma_me=1 / trellis=1 / 8x8dct=1 / cqm=0 / deadzone=21,11 / fast_pskip=0 / chroma_qp_offset=-2 / threads=12 / sliced_threads=0 / nr=0 / decimate=1 / interlaced=0 / bluray_compat=0 / constrained_intra=0 / bframes=3 / b_pyramid=2 / b_adapt=1 / b_bias=0 / direct=1 / weightb=1 / open_gop=0 / weightp=2 / keyint=250 / keyint_min=23 / scenecut=40 / intra_refresh=0 / rc_lookahead=40 / rc=2pass / mbtree=1 / bitrate=8806 / ratetol=1.0 / qcomp=0.60 / qpmin=0 / qpmax=69 / qpstep=4 / cplxblur=20.0 / qblur=0.5 / ip_ratio=1.40 / aq=1:1.00
Language                         : English
Default                          : Yes
Forced                           : No

Audio #1
ID                               : 2
Format                           : DTS
Format/Info                      : Digital Theater Systems
Codec ID                         : A_DTS
Duration                         : 1h 50mn
Bit rate mode                    : Constant
Bit rate                         : 1 510 Kbps
Channel(s)                       : 6 channels
Channel positions                : Front: L C R, Side: L R, LFE
Sampling rate                    : 48.0 KHz
Bit depth                        : 16 bits
Compression mode                 : Lossy
Delay relative to video          : 11ms
Stream size                      : 1.16 GiB (14%)
Title                            : Engels DTS
Language                         : English
Default                          : Yes
Forced                           : No

Audio #2
ID                               : 3
Format                           : AC-3
Format/Info                      : Audio Coding 3
Mode extension                   : CM (complete main)
Codec ID                         : A_AC3
Duration                         : 1h 50mn
Bit rate mode                    : Constant
Bit rate                         : 640 Kbps
Channel(s)                       : 6 channels
Channel positions                : Front: L C R, Side: L R, LFE
Sampling rate                    : 48.0 KHz
Bit depth                        : 16 bits
Compression mode                 : Lossy
Stream size                      : 505 MiB (6%)
Title                            : Engels DD5.1
Language                         : English
Default                          : No
Forced                           : No

Text #1
ID                               : 4
Format                           : UTF-8
Codec ID                         : S_TEXT/UTF8
Codec ID/Info                    : UTF-8 Plain Text
Title                            : Nederlands
Language                         : Dutch
Default                          : No
Forced                           : Yes

Text #2
ID                               : 5
Format                           : UTF-8
Codec ID                         : S_TEXT/UTF8
Codec ID/Info                    : UTF-8 Plain Text
Language                         : English
Default                          : Yes
Forced                           : No
.
Enjoy
